<?xml version="1.0" encoding="UTF-8" standalone="no"?>
<!-- Creator: CorelDRAW -->

<svg
   xml:space="preserve"
   width="64"
   height="64"
   style="clip-rule:evenodd;fill-rule:evenodd;image-rendering:optimizeQuality;shape-rendering:geometricPrecision;text-rendering:geometricPrecision"
   viewBox="0 0 68.4835 68.495192"
   version="1.1"
   id="svg15"
   sodipodi:docname="cat.svg"
   inkscape:version="1.3.2 (091e20e, 2023-11-25, custom)"
   xmlns:inkscape="http://www.inkscape.org/namespaces/inkscape"
   xmlns:sodipodi="http://sodipodi.sourceforge.net/DTD/sodipodi-0.dtd"
   xmlns="http://www.w3.org/2000/svg"
   xmlns:svg="http://www.w3.org/2000/svg"><sodipodi:namedview
   id="namedview15"
   pagecolor="#ffffff"
   bordercolor="#000000"
   borderopacity="0.25"
   inkscape:showpageshadow="2"
   inkscape:pageopacity="0.0"
   inkscape:pagecheckerboard="0"
   inkscape:deskcolor="#d1d1d1"
   inkscape:zoom="6.2274976"
   inkscape:cx="45.202747"
   inkscape:cy="33.962277"
   inkscape:window-width="1920"
   inkscape:window-height="1001"
   inkscape:window-x="-9"
   inkscape:window-y="-9"
   inkscape:window-maximized="1"
   inkscape:current-layer="Capa_x0020_1" />
 <defs
   id="defs1">
  <style
   type="text/css"
   id="style1">
   <![CDATA[
    .fil2 {fill:#080807}
    .fil1 {fill:#FDFDFD}
    .fil0 {fill:#521973}
   ]]>
  </style>
 </defs>
 <g
   id="Capa_x0020_1"
   inkscape:label="Capa 1"
   inkscape:groupmode="layer"
   transform="matrix(0.03131998,0,0,0.03131998,-1.5060855,0.35555103)">
  <metadata
   id="CorelCorpID_0Corel-Layer" />
  <path
   class="fil0"
   d="m 1191.4511,351.87371 c 0,6.80026 168.449,284.094 187.409,316.783 31.1012,53.6183 64.5513,103.54 94.1177,157.977 3.756,6.91531 9.5272,13.0443 12.1138,18.3591 7.0759,14.5424 -4.4703,17.579 10.7371,22.5083 14.5512,4.71556 34.4122,13.378 47.4691,16.2352 25.3818,5.55374 79.4944,29.177 96.789,30.617 V 88.645308 h -448.635 V 351.87331 Z"
   id="path1" />
  <path
   class="fil0"
   d="m 385.56784,2078.0997 h 445.867 v -260.458 c 0,-11.7977 -129.813,-226.755 -146.044,-250.108 -14.9128,-21.4552 -144.593,-240.495 -147.687,-250.04 l -124.441,-15.2276 c 0,-21.751 13.8458,-41.2959 13.8458,-58.1885 0,-5.1454 -26.0076,-40.4476 -30.0708,-46.5159 l 140.846,-92.0254 0.57775,-371.63399 154.658,264.021 69.0823,-22.6157 c -0.72061,-8.66752 -2.76865,-9.84325 -2.76865,-19.3957 l 0.4311,-6.74969 378.06796,-105.183 L 695.73834,88.642218 H 385.56935 V 2078.1022 Z"
   id="path2" />
  <path
   class="fil1"
   d="m 1191.4511,88.646208 h 448.635 V 914.35421 c -17.2946,-1.43995 -71.4072,-25.0632 -96.789,-30.617 -13.0569,-2.85715 -32.9179,-11.5196 -47.4691,-16.2352 -15.2074,-4.92921 -3.6612,-7.96588 -10.7371,-22.5083 -2.5866,-5.3148 -8.3578,-11.4438 -12.1138,-18.3591 -29.5664,-54.4375 -63.0165,-104.359 -94.1177,-157.977 -18.9596,-32.6891 -187.409,-309.983 -187.409,-316.783 V 88.646608 Z m -36.0026,274.313002 c 0,16.1492 296.322,487.886 296.322,501.52 v 19.3957 c 19.6018,1.63211 98.8813,26.3426 118.278,34.0544 18.6195,7.4033 37.0064,11.6422 54.3579,20.4261 6.7307,3.40582 50.3288,25.512 51.6815,25.8736 V 52.625008 h -520.639 V 362.95901 Z"
   id="path3" />
  <path
   class="fil1"
   d="M 1124.9861,368.49971 V 22.144708 h 581.566 V 994.70771 c 24.4147,5.69149 56.2441,44.32119 69.2327,63.72829 34.7523,0 111.795,29.5057 142.859,39.9406 28.8054,9.6764 97.8282,52.6031 111.923,73.6638 -8.2617,-2.2061 -79.5298,-45.0924 -97.8535,-54.4893 -27.8433,-14.2807 -80.4274,-31.4059 -120.926,-31.4059 h -19.3856 c 11.9684,51.3983 75.5614,34.8016 111.554,62.9483 20.8812,16.33 90.1885,56.033 96.1481,78.3642 -36.813,-24.6638 -133.243,-91.4376 -188.316,-91.4376 -3.8812,0 -5.5398,3.7775 -5.5398,8.3123 v 13.8546 c 0,8.0569 32.5386,19.3932 42.3212,26.928 16.7371,12.8913 23.823,18.555 38.6802,33.3414 14.9077,14.8344 52.5096,65.2947 57.4679,86.5842 -3.019,-2.2124 -43.4413,-53.0393 -54.6916,-64.4261 -12.2857,-12.4349 -54.1075,-43.636 -75.4691,-43.636 -19.2592,0 -12.7472,42.6764 -25.5689,57.5412 -26.0405,30.1947 -10.6448,29.9849 -23.3578,62.526 -12.5297,32.0671 -56.3086,76.4123 -56.3086,115.453 v 16.6258 c 0,30.9052 41.5412,82.1367 41.5412,124.687 v 22.1682 c 0,12.1037 -5.5399,10.062 -5.5399,22.1656 0,16.9457 36.0026,40.7978 36.0026,85.8965 0,35.9141 -26.1024,74.8661 -33.0569,105.468 -8.3742,36.8521 -11.2529,82.4021 -11.7674,128.07 l -29.9482,-17.4134 v 227.209 h -409.8649 c -13.6157,0 -62.5349,-111.656 -80.325,-124.706 l -31.8736,23.9748 -3.5171,-1.4134 -17.2617,-99.6386 2.818,-0.488 -0.7775,-39.8686 -265.08103,189.493 v 52.6461 H 316.33488 V 22.144697 l 416.72299,0.857144 486.08803,827.621999 c 18.8559,-1.57017 42.8066,-13.8546 60.9268,-13.8546 h 5.5373 c 35.2313,0 92.0279,29.6296 130.1609,30.4792 -4.3072,-18.4956 -125.7999,-214.962 -145.6719,-247.71 -16.8951,-27.8433 -145.111,-238.803 -145.111,-251.04 z m -19.3856,8.31228 c 0,10.7472 247.277,411.883 274.167,462.729 -30.976,-2.57902 -66.545,-22.1669 -99.6967,-22.1669 -11.1239,0 -38.5234,8.44376 -49.8484,11.0835 -19.4551,-29.067 -45.0696,-72.3945 -61.8332,-104.383 -18.7206,-35.7232 -43.2352,-68.7561 -61.8813,-104.336 -34.732,-66.277 -82.3958,-143.712 -122.20796,-207.457 -42.2592,-67.6651 -81.9445,-139.068 -122.32,-207.344 -14.7687,-24.9748 -110.503,-202.1870022 -127.474,-202.1870022 h -415.403 c -12.928,0 -19.3856,6.46145 -19.3856,19.3957002 V 2158.4563 c 12.7244,3.3995 6.99116,8.3123 16.6157,8.3123 h 11.0771 576.027 -5.53857 c 28.7712,0 22.1543,-32.3743 22.1543,-60.9584 l 225.61003,-162.759 c 1.4779,35.8167 11.4223,123.967 37.4792,123.967 h 2.7699 c 7.4033,0 19.177,-12.7737 24.9229,-16.6258 20.2415,14.8382 57.9078,116.376 80.3124,116.376 h 415.404 c 29.6208,0 19.3856,-67.2112 19.3856,-96.9799 0,-38.7902 0,-77.5829 0,-116.374 44.2529,21.2453 27.6233,-87.9534 36.5816,-124.108 6.5904,-26.5993 41.3452,-104.242 38.191,-128.038 l -3.4716,-27.6157 -4.8369,-0.092 c 0,-23.9141 -17.727,-40.526 -27.6941,-55.4173 l 6.4349,-35.8863 c 4.9102,-39.0001 -42.4362,-107.067 -42.4362,-133.134 v -13.8546 c 0,-34.2845 35.9975,-75.4691 50.3692,-102 10.2832,-18.9861 7.5525,-47.0544 18.1201,-59.4539 11.8281,-13.8787 20.1302,-30.11 20.1302,-54.6714 h 8.3085 c 17.0101,0 59.5842,44.3755 71.2884,56.1316 12.7396,12.794 46.8686,71.3275 56.1012,71.3275 h 2.7699 c 12.928,0 19.3856,-6.4602 19.3856,-19.3957 v -2.7712 c 0,-10.4792 -38.5323,-73.038 -45.9723,-84.2327 -9.904,-14.9052 -61.4881,-66.6562 -62.033,-68.1632 35.7396,8.3312 125.057,77.5842 138.468,77.5842 h 2.7686 c 6.6688,0 16.617,-9.9532 16.617,-16.6258 0,-35.2276 -104.245,-87.2593 -116.314,-105.291 29.1454,6.7927 122.785,72.0418 132.929,72.0418 9.3856,0 19.3856,-10.0051 19.3856,-19.3957 0,-33.4135 -124.166,-94.0722 -157.842,-108.075 -25.9735,-10.799 -74.3288,-22.9482 -103.053,-29.8913 -30.2213,-7.3047 -46.0785,-43.8774 -74.1961,-58.7637 0,-167.173 0,-334.347 0,-501.522 0,-84.0482 0,-168.096 0,-252.145 0,-41.5626 0,-83.1265 0,-124.688 0,-33.3818 12.0771,-102.5210006 -22.1555,-102.5210006 h -581.5649 c -8.9735,0 -16.617,12.0405006 -16.617,22.1669006 v 351.8957 z"
   id="path4" />
  <polygon
   class="fil1"
   points="307.399,986.416 307.399,1097.25 357.77,1066.46 "
   id="polygon4"
   transform="translate(299.71814,2.7497078)" />
  <path
   class="fil1"
   d="m 1659.4681,1058.4397 v 80.3541 c 0,24.4286 32.2567,40.9065 49.2656,50.459 11.1239,6.2453 23.1353,9.5196 34.3351,15.5221 16.1505,8.6561 17.9646,14.6612 29.9432,22.6865 3.3679,-7.024 8.3085,-20.2137 8.3085,-30.4792 v -2.7712 c 0,-12.756 -7.9507,-5.5411 -16.617,-5.5411 h -2.7687 c -8.5133,0 -11.0771,-8.1176 -11.0771,-16.6258 v -8.3123 c 0,-5.9835 11.1226,-16.6246 13.8458,-16.6246 11.6928,0 2.0974,6.8724 19.3856,8.3123 v -13.8546 c 0,-6.2124 -2.1921,-6.0822 -5.4349,-10.5917 l -30.5664,5.0506 c -3.139,-11.7623 -5.5385,-4.8483 -5.5385,-13.8546 v -2.7699 c 0,-7.7181 11.6713,-19.3957 19.3856,-19.3957 h 11.0771 c -2.0708,-24.8989 -33.2327,-12.5879 -33.2327,-38.7927 v -11.0835 c -29.7067,0 -32.8028,-22.1656 -60.9255,-22.1656 h -8.3085 c -2.8521,12.2516 -11.0771,18.7737 -11.0771,30.4779 z"
   id="path5" />
  <path
   class="fil1"
   d="m 1316.0681,1086.1497 c 28.2402,-2.3515 146.305,-52.6461 160.622,-52.6461 6.3439,0 3.22,0.9393 11.0771,2.7712 0.7219,8.6662 2.7699,9.8432 2.7699,19.3957 v 5.5411 c 0,12.5955 -58.5728,16.8205 -74.2214,19.9482 -12.7143,2.5398 -56.8079,19.885 -70.6727,26.2681 -71.0607,32.7093 -90.5019,4.7509 -90.5019,103.409 35.5045,-18.7952 70.5689,-41.1505 105.2369,-58.1872 16.0582,-7.8913 38.4514,-19.0683 54.8054,-28.2896 12.4994,-7.0481 15.8066,-4.7194 26.2402,-15.3072 4.8471,-4.9178 16.646,-17.3616 24.1897,-17.3616 h 2.7687 c 7.8596,0 13.8471,9.5651 13.8471,16.6258 0,21.7687 -33.7738,27.7421 -51.038,37.6006 -18.5626,10.6031 -39.483,20.2175 -58.8016,29.8332 -14.9393,7.4362 -111.708,59.7852 -111.708,68.3364 0,15.7143 23.2605,45.9659 33.2314,52.6461 20.2238,-13.5487 164.444,-146.855 166.162,-146.855 6.7004,0 19.3856,12.6915 19.3856,19.397 v 5.5411 c 0,13.2996 -11.5955,4.914 -23.952,12.0569 -7.196,4.1605 -16.7902,11.1012 -23.1846,15.5942 -10.354,7.2769 -31.6233,24.7093 -40.8155,33.9748 -19.9747,20.1302 -58.2883,55.4249 -72.6714,76.9154 7.5449,11.2731 23.3528,13.8546 41.5412,13.8546 52.6613,0 103.694,-55.9065 129.446,-86.6095 26.8521,-32.0114 22.0746,-27.8863 63.6031,-44.4261 36.2769,-14.4463 45.0077,-19.0304 75.947,-35.153 l 7.9393,-58.2491 v -27.708 c 0,-21.1454 -7.9368,-24.8951 -8.3085,-41.5626 -9.6713,-2.2541 -9.3249,-5.5411 -19.3856,-5.5411 h -8.3085 c -13.9583,0 -30.9634,36.0203 -47.0785,36.0203 h -8.3084 c -8.598,0 -24.9242,-16.335 -24.9242,-24.9368 v -2.7712 c 0,-26.8445 100.317,-43.60689 132.929,-44.33379 v -5.5411 c -30.3073,-7.06449 -39.55,-24.9381 -88.6196,-24.9381 h -22.1555 c -70.2732,0 -198.324,85.40969 -227.086,124.68799 z"
   id="path6" />
  <path
   class="fil1"
   d="m 1529.3081,1241.3097 v 5.5411 c 0,35.3945 41.636,91.0861 64.0266,96.9294 l -3.1011,-24.8875 -0.035,-2.775 8.3438,-85.8914 c -6.2351,-9.316 -12.1403,-13.8546 -27.6941,-13.8546 h -13.8471 c -13.9975,0 -27.6928,9.9963 -27.6928,24.9381 z"
   id="path7" />
  <path
   class="fil1"
   d="m 1701.0081,1232.9997 v 19.3957 c 0,25.0847 13.8471,39.2491 13.8471,60.9584 v 8.3135 c 0,7.483 -1.3224,7.6385 -2.7686,13.8534 21.5157,-14.4147 41.5399,-44.1429 41.5399,-80.3541 v -8.3122 c 0,-17.311 -16.2124,-30.4792 -33.2327,-30.4792 -7.8357,0 -19.3857,8.7952 -19.3857,16.6246 z"
   id="path8" />
  <path
   class="fil1"
   d="m 1678.8581,1607.0597 c 10.5689,2.8243 14.3325,8.3135 30.4628,8.3135 7.4792,0 7.6359,-1.3236 13.2756,-2.8217 l 3.3414,-44.2833 c 1.2617,-14.2756 -5.373,-47.1037 -16.617,-47.1037 h -2.7687 c -14.5689,0 -9.6789,25.5588 -14.866,40.5424 -5.0973,14.7206 -9.3742,30.5171 -12.8281,45.3528 z"
   id="path9" />
  <path
   class="fil1"
   d="m 1529.3081,1568.2697 v 16.6246 c 0,11.1429 7.1479,31.3616 11.1239,38.3566 l 35.9558,3.2061 h 2.7687 c 10.2579,0 12.5094,-2.7029 16.6157,-8.3123 -22.0722,-32.9786 -25.8066,-50.4261 -36.0013,-94.2075 -19.3793,0.4311 -30.4628,24.995 -30.4628,44.3326 z"
   id="path10" />
  <path
   class="fil1"
   d="m 836.97314,994.70871 2.4665,26.45009 -78.2226,18.239 6.00127,18.0948 -293.061,161.599 3.02023,-0.3148 2.54868,39.1606 c 39.9179,0 96.7043,10.8622 132.835,11.1783 42.373,0.3704 24.0455,3.5664 60.4565,-6.2023 19.8053,-5.3135 33.9343,-13.2883 61.4893,-13.2883 -24.44,36.5171 -83.0798,63.5677 -83.0798,121.915 0,6.622 152.813,261.459 170.055,289.813 17.4008,28.6195 79.4375,118.058 79.2176,150.72 -0.52339,77.5273 -0.0303,155.234 -0.0303,232.78 38.8041,-25.9988 293.71298,-212.864 315.70698,-213.354 0,20.7396 -13.8471,63.3136 -13.8471,77.5829 v 33.2504 c 0,13.1467 3.1012,20.0139 5.5386,30.4792 43.5108,-29.1518 196.8029,-166.249 249.2419,-166.249 7.4804,0 7.6359,1.3224 13.8471,2.7699 -0.4614,20.7067 -13.8471,40.6625 -13.8471,69.2719 v 24.9368 c 28.9571,-6.7497 68.4641,-77.5829 135.699,-77.5829 h 72.0026 c 14.6637,0 36.0329,32.0342 44.3098,41.5614 0,-41.8332 0.6928,-54.3098 13.8382,-83.1329 8.2996,-18.1972 22.1631,-52.1303 22.1631,-77.5753 0,-28.7775 -15.3932,-60.9584 -44.3098,-60.9584 l -30.5702,-1.0885 -68.5741,8.0772 -62.9647,24.0784 -1.2819,-3.3578 c 0,-34.6258 14.3161,-21.0911 -23.8268,-31.5791 -24.5664,-6.7548 -28.0266,-5.6739 -48.636,-15.067 -30.0089,-13.6776 -54.5361,-26.172 -76.3971,-48.2491 -34.3085,-34.6448 -78.2277,-105.244 -78.2277,-171.105 0,-14.9924 8.3072,-28.9457 8.3072,-47.1037 v -5.5424 c 0,-9.3982 -16.019,-13.8534 -24.9241,-13.8534 -6.6701,0 -100.907,111.381 -112.823,125.409 -16.2036,19.0771 -97.9357,129.675 -105.956,135.05 3.7206,-15.9773 76.789,-123.436 90.8282,-144.645 15.4855,-23.3983 32.5727,-47.0936 49.6486,-69.4717 16.2263,-21.2668 40.1606,-45.9887 52.6069,-65.1543 l -40.7637,-53.9078 2.7649,-2.0923 c -31.5045,0.7029 -113.152,81.3667 -138.468,99.7498 -17.2769,12.5449 -43.4577,42.086 -60.2378,58.8762 -14.2352,14.244 -46.35915,51.904 -58.84465,60.2694 13.2756,-49.7447 198.35205,-214.363 245.22805,-246.669 l 6.7825,-80.2884 c -17.5816,1.464 -80.4085,32.0367 -94.7195,41.0001 -30.6372,19.1897 -52.191,33.6486 -80.9003,54.8269 -24.6802,18.2061 -51.74719,40.9786 -74.35659,61.3756 -19.1694,17.2933 -52.4501,51.856 -71.2681,64.4641 6.67384,-25.0089 84.5766,-98.0735 105.86499,-118.516 28.3882,-27.2617 98.234,-73.4413 135.106,-92.0292 24.4261,-12.3135 49.215,-27.4349 74.7169,-38.8484 28.3692,-12.6966 36.751,-32.5866 58.8623,-54.7093 21.4235,-21.4349 36.3514,-33.995 61.3439,-52.2289 13.2276,-9.6511 62.6385,-37.94185 68.1278,-45.43995 -42.1303,0 -68.9609,-5.06448 -96.894,11.1176 -15.1415,8.77119 -51.3009,41.52845 -69.2668,41.52845 h -5.5386 c -15.8913,0 -21.9811,-14.6283 -33.5614,-23.378 l -149.216,40.0039 c -3.139,-11.7623 -5.5385,-4.8483 -5.5385,-13.8546 v -8.3122 c 15.579,-4.1619 71.765,-31.57653 89.5728,-40.60823 26.8534,-13.617 61.4868,-31.7813 88.0393,-42.1429 50.9204,-19.8698 182.5249,-8.68649 251.6379,-8.68649 -2.0063,-2.74084 -173.414,-55.416 -185.5459,-55.416 -21.1909,0 -201.155,47.9116 -228.112,57.1619 -32.4324,11.1277 -77.31243,21.4033 -111.38603,29.8673 -39.8901,9.90773 -76.0203,20.3338 -114.678,29.3452 z"
   id="path11" />
  <path
   class="fil1"
   d="m 1282.8401,1997.7497 110.774,-88.6676 c 0,50.1859 7.5891,87.2353 36.0013,108.062 52.3756,-35.0898 100.479,-138.54 191.086,-138.54 9.5474,0 10.7232,2.048 19.3856,2.7699 v 196.73 h -304.629 c -9.0544,0 -46.7611,-69.2782 -52.6183,-80.3541 z m 149.545,-22.1669 -13.8458,-113.604 c -14.3287,7.5854 -174.469,137.478 -174.469,138.541 0,7.3022 63.1126,113.604 69.2327,113.604 h 362.786 v -229.979 c 0,-12.708 -36.4678,-30.4792 -52.617,-30.4792 h -11.0771 c -87.5311,0 -162.138,117.142 -180.009,121.917 z"
   id="path12" />
  <path
   class="fil0"
   d="m 1282.8401,1997.7497 c 5.8572,11.0759 43.5639,80.3541 52.6183,80.3541 h 304.629 v -196.73 c -8.6625,-0.7219 -9.8382,-2.7699 -19.3856,-2.7699 -90.607,0 -138.711,103.45 -191.086,138.54 -28.4122,-20.8268 -36.0013,-57.8762 -36.0013,-108.062 l -110.774,88.6676 z"
   id="path13" />
  <path
   class="fil1"
   d="m 385.56784,88.646208 h 310.169 l 442.19396,755.337002 -378.06796,105.183 -0.4311,6.74969 c 0,9.55248 2.04804,10.7282 2.76865,19.3957 l -69.0823,22.6157 -154.658,-264.021 -0.57775,371.634 -140.846,92.0254 c 4.06322,6.0683 30.0708,41.3705 30.0708,46.5159 0,16.8926 -13.8458,36.4375 -13.8458,58.1885 l 124.441,15.2276 c 3.09356,9.5449 132.774,228.584 147.687,250.04 16.2314,23.3528 146.044,238.31 146.044,250.108 v 260.458 h -445.867 V 88.643698 Z M 349.56654,2114.1262 h 517.871 v -307.562 c 0,-13.2048 -129.292,-225.4 -146.223,-252.701 -19.8395,-31.9937 -142.894,-232.541 -147.426,-250.997 l -124.525,-19.9912 c 0.30468,-13.7004 10.7446,-34.6435 7.46651,-46.0494 -3.1947,-11.1138 -19.9482,-20.6726 -20.885,-36.3313 l 138.039,-78.3276 1.46524,-253.01099 112.052,186.46799 36.0291,-22.1239 c -6.31607,-27.1201 -10.8508,-17.6865 19.9191,-27.1745 15.1315,-4.6662 32.3022,-6.70164 44.2858,-14.45769 l -3.12516,-27.0443 404.17097,-105.886 c -72.6765,-137.422 -162.177,-268.33 -237.21997,-405.486 -37.7207,-68.9432 -81.0431,-132.747 -119.082,-202.271 -11.9912,-21.9179 -112.861,-198.555002 -122.795,-198.555002 h -360.017 V 2114.1253 Z"
   id="path14" />
  <path
   class="fil2"
   d="m 1432.3881,1975.5797 c 17.8711,-4.775 92.478,-121.917 180.009,-121.917 h 11.0771 c 16.1492,0 52.617,17.7712 52.617,30.4792 v 229.979 h -362.786 c -6.1201,0 -69.2327,-106.302 -69.2327,-113.604 0,-1.0632 160.141,-130.956 174.469,-138.541 l 13.8458,113.604 z m 96.9281,-407.313 c 0,-19.3376 11.0835,-43.9015 30.4628,-44.3326 10.1947,43.7814 13.9292,61.2289 36.0013,94.2075 -4.1062,5.6094 -6.3578,8.3123 -16.6157,8.3123 h -2.7686 l -35.9558,-3.2061 c -3.976,-6.9949 -11.1239,-27.2137 -11.1239,-38.3566 v -16.6246 z m 149.545,38.7915 c 3.4539,-14.8357 7.7307,-30.6322 12.8281,-45.3528 5.1871,-14.9836 0.2971,-40.5424 14.866,-40.5424 h 2.7687 c 11.244,0 17.8787,32.8281 16.617,47.1037 l -3.3414,44.2833 c -5.6397,1.4981 -5.7965,2.8218 -13.2756,2.8218 -16.1302,0 -19.8938,-5.4893 -30.4628,-8.3136 z m 22.1543,-374.063 c 0,-7.8293 11.55,-16.6246 19.3856,-16.6246 17.0203,0 33.2327,13.1682 33.2327,30.4792 v 8.3123 c 0,36.2112 -20.0241,65.9394 -41.5399,80.3541 1.4463,-6.2149 2.7687,-6.3704 2.7687,-13.8534 v -8.3136 c 0,-21.7093 -13.8471,-35.8736 -13.8471,-60.9584 v -19.3957 z m -171.699,8.3135 c 0,-14.9419 13.6953,-24.9381 27.6928,-24.9381 h 13.8471 c 15.5538,0 21.4589,4.5386 27.6941,13.8546 l -8.3439,85.8914 0.035,2.775 3.1012,24.8875 c -22.3907,-5.8432 -64.0266,-61.5349 -64.0266,-96.9294 v -5.5411 z m 130.159,-182.876 c 0,-11.7042 8.225,-18.2263 11.0771,-30.4779 h 8.3085 c 28.1227,0 31.2188,22.1656 60.9255,22.1656 v 11.0835 c 0,26.2048 31.1619,13.8938 33.2327,38.7927 h -11.0771 c -7.7143,0 -19.3856,11.6776 -19.3856,19.3957 v 2.77 c 0,9.0063 2.3995,2.0923 5.5385,13.8546 l 30.5664,-5.0506 c 3.2428,4.5095 5.4349,4.3792 5.4349,10.5917 v 13.8546 c -17.2883,-1.44 -7.6928,-8.3123 -19.3856,-8.3123 -2.7231,0 -13.8458,10.641 -13.8458,16.6246 v 8.3123 c 0,8.5082 2.5639,16.6258 11.0771,16.6258 h 2.7687 c 8.6663,0 16.617,-7.215 16.617,5.5411 v 2.7712 c 0,10.2655 -4.9406,23.4552 -8.3085,30.4792 -11.9785,-8.0253 -13.7927,-14.0304 -29.9432,-22.6865 -11.1998,-6.0026 -23.2112,-9.2769 -34.3351,-15.5221 -17.0089,-9.5525 -49.2656,-26.0304 -49.2656,-50.459 v -80.3541 z m -1052.35996,-69.27065 50.3718,80.04175 -50.3718,30.7927 V 989.16155 Z m 708.95596,96.97985 c 28.7624,-39.2782 156.813,-124.68795 227.086,-124.68795 h 22.1555 c 49.0696,0 58.3124,17.8736 88.6196,24.9381 v 5.5411 c -32.6119,0.72693 -132.929,17.48925 -132.929,44.33375 v 2.7712 c 0,8.6018 16.3262,24.9368 24.9242,24.9368 h 8.3085 c 16.1151,0 33.1202,-36.0203 47.0785,-36.0203 h 8.3085 c 10.0607,0 9.7143,3.287 19.3856,5.5411 0.3716,16.6675 8.3084,20.4172 8.3084,41.5626 v 27.708 l -7.9393,58.2491 c -30.9394,16.1227 -39.6701,20.7067 -75.947,35.153 -41.5285,16.5398 -36.751,12.4147 -63.6031,44.4261 -25.7523,30.703 -76.7852,86.6095 -129.446,86.6095 -18.1884,0 -33.9963,-2.5815 -41.5412,-13.8546 14.3831,-21.4906 52.6967,-56.7852 72.6714,-76.9154 9.1922,-9.2655 30.4615,-26.6979 40.8155,-33.9748 6.3945,-4.493 15.9886,-11.4336 23.1846,-15.5942 12.3565,-7.1428 23.952,1.2428 23.952,-12.0569 v -5.5411 c 0,-6.7054 -12.6852,-19.397 -19.3856,-19.397 -1.7181,0 -145.938,133.306 -166.1619,146.855 -9.971,-6.6801 -33.2314,-36.9318 -33.2314,-52.6461 0,-8.5512 96.7687,-60.9002 111.7079,-68.3364 19.3186,-9.6157 40.239,-19.2301 58.8016,-29.8332 17.2642,-9.8584 51.038,-15.8319 51.038,-37.6006 0,-7.0607 -5.9874,-16.6258 -13.8471,-16.6258 h -2.7686 c -7.5437,0 -19.3426,12.4438 -24.1897,17.3616 -10.4336,10.5879 -13.7409,8.2592 -26.2402,15.3072 -16.354,9.2213 -38.7472,20.3983 -54.8054,28.2896 -34.6676,17.0367 -69.7321,39.392 -105.237,58.1872 0,-98.6575 19.4412,-70.6992 90.502,-103.409 13.8647,-6.383 57.9584,-23.7282 70.6727,-26.2681 15.6486,-3.1277 74.2214,-7.3527 74.2214,-19.9482 v -5.5411 c 0,-9.5525 -2.0481,-10.7295 -2.77,-19.3957 -7.8571,-1.8318 -4.7332,-2.7712 -11.0771,-2.7712 -14.3173,0 -132.382,50.2946 -160.622,52.6461 z M 836.97254,994.70435 c 38.6575,-9.01139 74.7877,-19.4375 114.678,-29.3452 34.0734,-8.46398 78.95326,-18.7396 111.38596,-29.8673 26.9571,-9.25033 206.921,-57.1619 228.112,-57.1619 12.1328,0 183.54,52.6752 185.546,55.416 -69.1126,0 -200.717,-11.1833 -251.638,8.68649 -26.5525,10.3616 -61.1859,28.526 -88.0393,42.1429 -17.8079,9.03162 -73.9938,36.44626 -89.5728,40.60816 v 8.3123 c 0,9.0063 2.3995,2.0923 5.5386,13.8546 l 149.216,-40.0039 c 11.5803,8.7497 17.6701,23.378 33.5614,23.378 h 5.5386 c 17.9659,0 54.1252,-32.75728 69.2668,-41.52848 27.933,-16.1821 54.7637,-11.1176 96.894,-11.1176 -5.4892,7.49812 -54.9002,35.78888 -68.1278,45.43998 -24.9925,18.2339 -39.9203,30.794 -61.3439,52.2289 -22.1113,22.1227 -30.4931,42.0127 -58.8623,54.7093 -25.5019,11.4134 -50.2908,26.5348 -74.7169,38.8484 -36.8724,18.5879 -106.718,64.7675 -135.106,92.0292 -21.28832,20.4425 -99.19102,93.5071 -105.86502,118.516 18.818,-12.6081 52.0987,-47.1707 71.2681,-64.4641 22.6094,-20.397 49.67642,-43.1695 74.35662,-61.3756 28.7093,-21.1783 50.263,-35.6372 80.9003,-54.8269 14.311,-8.9633 77.1379,-39.5361 94.7195,-41.0001 l -6.7826,80.2884 c -46.8762,32.306 -231.95198,196.924 -245.22798,246.669 12.4855,-8.3654 44.60938,-46.0254 58.84458,-60.2694 16.7801,-16.7902 42.9609,-46.3313 60.2378,-58.8762 25.3161,-18.3831 106.964,-99.0469 138.468,-99.7498 l -2.7648,2.0923 40.7637,53.9078 c -12.4463,19.1656 -36.3806,43.8876 -52.6069,65.1543 -17.0759,22.378 -34.1631,46.0734 -49.6486,69.4717 -14.0392,21.2086 -87.1076,128.668 -90.8282,144.645 8.0202,-5.3742 89.7524,-115.972 105.956,-135.05 11.9166,-14.0278 106.153,-125.409 112.823,-125.409 8.9051,0 24.9241,4.4551 24.9241,13.8534 v 5.5424 c 0,18.1581 -8.3072,32.1113 -8.3072,47.1037 0,65.861 43.9192,136.46 78.2277,171.105 21.861,22.0772 46.3882,34.5715 76.3971,48.2491 20.6094,9.3932 24.0696,8.3122 48.636,15.067 38.1429,10.488 23.8268,-3.0468 23.8268,31.5791 l 1.2819,3.3577 62.9647,-24.0784 68.5741,-8.0771 30.5702,1.0885 c 28.9166,0 44.3098,32.1808 44.3098,60.9584 0,25.445 -13.8635,59.3781 -22.1631,77.5753 -13.1454,28.8231 -13.8382,41.2997 -13.8382,83.1329 -8.2769,-9.5272 -29.6461,-41.5614 -44.3098,-41.5614 h -72.0026 c -67.2352,0 -106.742,70.8332 -135.699,77.5829 v -24.9368 c 0,-28.6094 13.3856,-48.5652 13.8471,-69.2719 -6.2111,-1.4475 -6.3666,-2.7699 -13.8471,-2.7699 -52.4388,0 -205.7309,137.098 -249.2419,166.249 -2.4375,-10.4652 -5.5386,-17.3325 -5.5386,-30.4792 v -33.2504 c 0,-14.2693 13.8471,-56.8433 13.8471,-77.5829 -21.9937,0.4905 -276.90301,187.356 -315.70701,213.354 0,-77.5463 -0.49305,-155.253 0.0303,-232.78 0.21998,-32.6612 -61.8168,-122.1 -79.2176,-150.72 -17.2415,-28.354 -170.055,-283.191 -170.055,-289.813 0,-58.3478 58.6398,-85.3984 83.0798,-121.915 -27.555,0 -41.684,7.9747 -61.4893,13.2883 -36.4109,9.7687 -18.0835,6.5727 -60.4565,6.2023 -36.1303,-0.3161 -92.9167,-11.1783 -132.835,-11.1783 l -2.54868,-39.1606 -3.02023,0.3148 293.061,-161.599 -6.00127,-18.0948 78.2226,-18.239 -2.4665,-26.45012 z M 349.56554,52.620348 h 360.017 c 9.93428,0 110.804,176.637002 122.795,198.555002 38.0392,69.5235 81.3617,133.328 119.082,202.271 75.04306,137.156 164.54396,268.064 237.21996,405.486 l -404.17096,105.886 3.12516,27.0443 c -11.9836,7.75602 -29.1543,9.79145 -44.2858,14.45765 -30.77,9.488 -26.2352,0.054 -19.9191,27.1745 l -36.0291,22.1239 -112.052,-186.46795 -1.46524,253.01095 -138.039,78.3276 c 0.93679,15.6587 17.6903,25.2175 20.885,36.3313 3.27813,11.4058 -7.16183,32.349 -7.46651,46.0494 l 124.525,19.9912 c 4.53224,18.4551 127.587,219.003 147.426,250.997 16.9305,27.3009 146.223,239.496 146.223,252.701 v 307.562 h -517.871 V 52.621248 Z m 805.88196,0 h 520.639 V 964.22435 c -1.3527,-0.36157 -44.9508,-22.4678 -51.6815,-25.8736 -17.3515,-8.78383 -35.7384,-13.0228 -54.3579,-20.4261 -19.397,-7.71177 -98.6765,-32.4223 -118.278,-34.0544 v -19.3957 c 0,-13.6347 -296.322,-485.371 -296.322,-501.52 V 52.620548 Z m -30.4628,315.875002 c 0,12.2364 128.216,223.196 145.111,251.04 19.8711,32.7472 141.364,229.214 145.672,247.71 -38.1328,-0.84956 -94.9293,-30.4792 -130.161,-30.4792 h -5.5373 c -18.1201,0 -42.0709,12.2845 -60.9268,13.8546 L 733.05464,22.998748 316.33164,22.141604 V 2147.3716 h 584.335 v -52.6461 l 265.08096,-189.493 0.7775,39.8686 -2.8179,0.488 17.2617,99.6386 3.5171,1.4134 31.8736,-23.9748 c 17.7902,13.0493 66.7093,124.706 80.325,124.706 h 409.8649 v -227.209 l 29.9482,17.4134 c 0.5145,-45.6676 3.3932,-91.2176 11.7674,-128.07 6.9545,-30.6018 33.0569,-69.5538 33.0569,-105.468 0,-45.0987 -36.0026,-68.9508 -36.0026,-85.8965 0,-12.1037 5.5398,-10.062 5.5398,-22.1656 v -22.1682 c 0,-42.55 -41.5412,-93.7814 -41.5412,-124.687 v -16.6258 c 0,-39.0405 43.7788,-83.3857 56.3086,-115.453 12.713,-32.5411 -2.6826,-32.3313 23.3578,-62.526 12.8218,-14.8648 6.3098,-57.5412 25.5689,-57.5412 21.3616,0 63.1834,31.2011 75.4691,43.636 11.2503,11.3869 51.6726,62.2137 54.6916,64.4261 -4.9583,-21.2895 -42.5601,-71.7498 -57.4679,-86.5842 -14.8572,-14.7864 -21.9431,-20.4501 -38.6802,-33.3414 -9.7825,-7.5348 -42.3212,-18.8711 -42.3212,-26.928 v -13.8546 c 0,-4.5348 1.6587,-8.3123 5.5399,-8.3123 55.0734,0 151.503,66.7738 188.316,91.4376 -5.9596,-22.3313 -75.2669,-62.0342 -96.1481,-78.3642 -35.9925,-28.1467 -99.5855,-11.55 -111.554,-62.9483 h 19.3856 c 40.4982,0 93.0823,17.1252 120.926,31.4059 18.3237,9.397 89.5918,52.2833 97.8535,54.4893 -14.0948,-21.0607 -83.1177,-63.9875 -111.923,-73.6638 -31.0633,-10.4349 -108.106,-39.9406 -142.859,-39.9406 -12.9886,-19.4071 -44.818,-58.0368 -69.2327,-63.72828 V 22.141615 h -581.566 V 368.49662 Z"
   id="path15" />
 </g>
</svg>
